<?xml version="1.0" encoding="utf-8"?>
<!-- Generator: Adobe Illustrator 23.0.3, SVG Export Plug-In . SVG Version: 6.00 Build 0)  -->
<svg version="1.1" id="Layer_1" xmlns="http://www.w3.org/2000/svg" xmlns:xlink="http://www.w3.org/1999/xlink" x="0px" y="0px"
	 viewBox="0 0 592.8 322.3" style="enable-background:new 0 0 592.8 322.3;" xml:space="preserve">
<style type="text/css">
	.st0{fill:#FFFFFF;}
</style>
<title>LOGO</title>
<path class="st0" d="M86.1,109.1c0,0-18.8-14.6-30.8-3.1c0,0-22.4,23.5-31.8,26.6c0,0,38.6,38.6,68.4-7.8c0,0-22.4,70.5-91.9,3.1
	c0,0,20.9-3.1,38.6-26.1C38.6,101.8,61.1,76.7,86.1,109.1z"/>
<path class="st0" d="M87.7,114.3c0,0-20.4,10.4-38.6,13.6C49.1,127.9,78.8,130.5,87.7,114.3z"/>
<path class="st0" d="M93.4,135.7c0,0-62.7,112.7,109.1,108.1c0,0-21.9-25-18.8-50.1c0,0,12.5-86.1-61.6-69.9c0,0,34.4,4.7,36.5,45.4
	c0,0,1.6,43.8,8.9,55.8C167.6,225,85.6,237,93.4,135.7z"/>
<rect x="167.8" y="275.3" class="st0" width="60.6" height="8.4"/>
<rect x="167.8" y="289.4" class="st0" width="60.6" height="8.4"/>
<path class="st0" d="M228.4,303v8.4h-15.7c-2.3,8-10.7,12.7-18.7,10.4c-5-1.4-8.9-5.4-10.4-10.4h-15.8V303H228.4z"/>
<path class="st0" d="M312,89.7c-2.3-11.8-6.5-23.1-12.4-33.6C280.8,22.6,245.5,0,205.1,0C144.9,0,96,50.2,96,112
	c0,3.1,0.1,6.2,0.4,9.3c0.3,3.5,0.7,7,1.3,10.4c1.8,8,4.1,15.9,6.8,23.7l0,0c5.9,14.3,14.6,27.3,25.7,38.1
	c-14.8-18.4-23.8-42.6-23.8-69.2c0-56.9,41.2-103.1,92.4-104h1.5c23.9,0,45.6,9.8,62.2,26.1l0.1,0.1c21.9,20.3,35.8,50.5,35.8,84.2
	c0,41.4-20.9,77.4-51.8,96.3c-7.9,5.2-8.5,19.2-8.5,19.2c-0.3,6.4-4.4,13.7-7.4,18.2c-0.5,0.8-1.1,1.6-1.7,2.5l-0.4,0.5
	c-0.6,0.8-1,1.3-1,1.3l0,0l-0.2,0.3c0.1-0.1,1.3-1.1,2.9-2.7c3.3-3.2,8.6-8.8,12-14.3c1.4-2.2,2.4-4.6,2.8-7.1
	c0.4-1.6,1-3.2,1.7-4.7c1.8-4.1,4.6-7.6,8.2-10.2l0,0c5.8-3.5,11.2-7.5,16.3-12c26.7-23.3,43.7-58.9,43.7-98.8
	C315.2,109.3,314.2,99.4,312,89.7z"/>
<path class="st0" d="M343.9,234.4l-1.8-4.8h-15.4l-1.8,4.9c-0.4,1.4-1,2.6-1.8,3.8c-0.6,0.7-1.5,1.1-2.5,1c-1,0-1.9-0.4-2.6-1.1
	c-0.7-0.6-1.1-1.5-1.1-2.4c0-0.5,0.1-1.1,0.3-1.6c0.2-0.6,0.5-1.3,0.9-2.3l9.7-24.6l1-2.6c0.3-0.9,0.7-1.7,1.2-2.5
	c0.4-0.7,1-1.2,1.7-1.6c0.8-0.4,1.7-0.6,2.6-0.6c0.9,0,1.8,0.2,2.7,0.6c0.7,0.4,1.3,0.9,1.7,1.6c0.4,0.6,0.8,1.3,1.1,2.1
	c0.3,0.7,0.7,1.7,1.1,2.9l9.9,24.4c0.6,1.3,1,2.6,1.2,4.1c0,0.9-0.4,1.8-1.1,2.4c-0.7,0.7-1.7,1.1-2.6,1.1c-0.5,0-1.1-0.1-1.5-0.3
	c-0.4-0.2-0.8-0.5-1.1-0.9c-0.4-0.5-0.7-1.1-0.9-1.7C344.5,235.6,344.2,234.9,343.9,234.4z M328.8,223.9h11.3l-5.8-15.6L328.8,223.9
	z"/>
<path class="st0" d="M367.8,204.7l14.8,22.3v-22.5c-0.1-1.2,0.2-2.3,0.9-3.3c0.6-0.7,1.6-1.1,2.5-1.1c1,0,2,0.4,2.6,1.1
	c0.7,0.9,1.1,2.1,1,3.3v29.8c0,3.3-1.4,5-4.1,5c-0.6,0-1.3-0.1-1.9-0.3c-0.6-0.2-1.1-0.5-1.5-0.9c-0.5-0.5-1-1-1.3-1.5
	c-0.4-0.6-0.8-1.2-1.2-1.8l-14.4-22.1v22.2c0.1,1.2-0.3,2.4-1,3.3c-0.7,0.7-1.6,1.1-2.6,1.1c-1,0-2-0.4-2.6-1.1
	c-0.7-0.9-1.1-2.1-1-3.3v-29.2c0-1,0.1-2,0.4-2.9c0.3-0.8,0.9-1.4,1.6-1.9c0.7-0.5,1.6-0.7,2.5-0.7c1.2,0,2.3,0.4,3.1,1.2
	c0.4,0.5,0.8,0.9,1.1,1.5L367.8,204.7z"/>
<path class="st0" d="M398.3,234.6v-29.8c-0.1-1.3,0.3-2.5,1.1-3.5c0.7-0.8,1.7-1.2,2.7-1.2c1.1,0,2.1,0.4,2.8,1.1
	c0.8,1,1.2,2.2,1.1,3.5v29.8c0.1,1.3-0.3,2.5-1.1,3.5c-0.7,0.8-1.7,1.2-2.8,1.2c-1,0-2-0.4-2.7-1.2
	C398.6,237.1,398.2,235.9,398.3,234.6z"/>
<path class="st0" d="M427.3,233l-6.1-24.1V235c0.1,1.2-0.3,2.3-1,3.3c-1.4,1.4-3.6,1.4-5,0.1c0,0,0,0-0.1-0.1
	c-0.7-0.9-1.1-2.1-1-3.3v-30c0-1.7,0.4-2.8,1.3-3.4c1.1-0.6,2.3-0.9,3.5-0.9h2.4c1.1-0.1,2.1,0.1,3.1,0.4c0.6,0.3,1.2,0.8,1.4,1.4
	c0.4,1.1,0.8,2.2,1.1,3.3l5.5,20.7l5.5-20.7c0.3-1.1,0.6-2.2,1.1-3.3c0.3-0.6,0.8-1.1,1.4-1.4c1-0.3,2.1-0.4,3.1-0.4h2.4
	c1.2-0.1,2.4,0.2,3.5,0.9c0.9,0.6,1.3,1.7,1.3,3.4v30c0.1,1.2-0.3,2.3-1,3.3c-0.7,0.7-1.6,1.1-2.6,1.1c-1,0-1.9-0.4-2.5-1.1
	c-0.7-0.9-1.1-2.1-1-3.3v-26.1l-6.1,24.1c-0.4,1.6-0.7,2.7-1,3.5c-0.3,0.8-0.8,1.5-1.4,2c-0.8,0.6-1.8,1-2.8,0.9
	c-1.5,0.1-3-0.7-3.7-2.1c-0.4-0.6-0.6-1.3-0.8-2C427.7,234.5,427.5,233.7,427.3,233z"/>
<path class="st0" d="M482.8,234.4l-1.8-4.8h-15.4l-1.8,4.9c-0.4,1.4-1,2.6-1.8,3.8c-0.6,0.7-1.5,1.1-2.5,1c-1,0-1.9-0.4-2.6-1.1
	c-0.7-0.6-1.1-1.5-1.1-2.4c0-0.5,0.1-1.1,0.3-1.6c0.2-0.6,0.5-1.3,0.9-2.3l9.7-24.6l1-2.6c0.3-0.9,0.7-1.7,1.2-2.5
	c0.4-0.7,1-1.2,1.7-1.6c0.8-0.4,1.7-0.6,2.6-0.6c0.9,0,1.9,0.2,2.7,0.6c0.7,0.4,1.3,0.9,1.7,1.6c0.4,0.6,0.8,1.3,1.1,2.1
	c0.3,0.7,0.7,1.7,1.1,2.9l9.9,24.4c0.6,1.3,1,2.6,1.2,4.1c0,0.9-0.4,1.8-1.1,2.4c-0.7,0.7-1.7,1.1-2.6,1.1c-0.5,0-1.1-0.1-1.5-0.3
	c-0.4-0.2-0.8-0.5-1.1-0.9c-0.4-0.5-0.7-1.1-0.9-1.7C483.4,235.6,483.1,234.9,482.8,234.4z M467.6,223.9h11.3l-5.7-15.6L467.6,223.9
	z"/>
<path class="st0" d="M516.6,207.1h-8.4v27.5c0.1,1.3-0.3,2.5-1.1,3.5c-0.7,0.8-1.7,1.2-2.7,1.1c-1.1,0-2.1-0.4-2.8-1.2
	c-0.8-1-1.2-2.2-1.1-3.5v-27.5h-8.4c-1,0.1-2.1-0.2-2.9-0.9c-0.7-0.6-1-1.4-1-2.3c0-0.9,0.3-1.7,1-2.3c0.8-0.6,1.8-0.9,2.9-0.9h24.4
	c1.1-0.1,2.1,0.2,3,0.9c0.7,0.6,1,1.4,1,2.3c0,0.9-0.3,1.7-1,2.3C518.7,206.9,517.6,207.2,516.6,207.1z"/>
<path class="st0" d="M550,206.7h-17.2v9.3h15.9c0.9-0.1,1.9,0.2,2.6,0.8c0.6,0.5,0.9,1.3,0.9,2.1c0,0.8-0.3,1.6-0.8,2.1
	c-0.7,0.6-1.7,0.9-2.6,0.8h-15.9v10.8h17.9c1-0.1,2,0.2,2.7,0.8c0.6,0.6,1,1.4,0.9,2.2c0,0.8-0.3,1.6-0.9,2.2
	c-0.8,0.6-1.7,0.9-2.7,0.8h-20.9c-2.2,0.4-4.3-1-4.7-3.1c-0.1-0.5-0.1-1,0-1.6v-28.5c0-0.9,0.1-1.8,0.5-2.7c0.3-0.7,0.9-1.2,1.5-1.5
	c0.8-0.3,1.8-0.5,2.7-0.5H550c1-0.1,2,0.2,2.7,0.8c0.6,0.5,0.9,1.3,0.9,2.1c0,0.8-0.3,1.6-0.9,2.2C552,206.5,551,206.8,550,206.7z"
	/>
<path class="st0" d="M565.1,200.8h10c2.3,0,4.5,0.2,6.7,0.7c1.9,0.5,3.6,1.4,5.1,2.7c3.9,3.4,5.9,8.5,5.9,15.4
	c0,2.1-0.2,4.2-0.6,6.2c-0.4,1.8-1,3.5-1.8,5.1c-0.8,1.5-1.9,2.8-3.2,4c-1,0.9-2.1,1.6-3.3,2.2c-1.2,0.6-2.5,1-3.9,1.2
	c-1.6,0.2-3.1,0.4-4.7,0.3h-10c-1.1,0.1-2.2-0.1-3.2-0.6c-0.7-0.4-1.1-1-1.3-1.8c-0.2-1-0.3-2-0.3-3v-27.7c-0.4-2.2,1-4.3,3.1-4.7
	C564.1,200.7,564.6,200.7,565.1,200.8L565.1,200.8z M568.1,206.9v25.7h5.8c1.3,0,2.3,0,3-0.1c0.8-0.1,1.5-0.3,2.3-0.5
	c0.7-0.3,1.4-0.6,2-1.2c2.6-2.2,3.8-5.9,3.8-11.2c0-3.7-0.6-6.5-1.7-8.4c-0.9-1.7-2.4-2.9-4.2-3.6c-2-0.5-4-0.8-6-0.8L568.1,206.9z"
	/>
<path class="st0" d="M352.7,293v-29.8c-0.1-1.3,0.3-2.5,1.1-3.5c0.7-0.8,1.7-1.2,2.7-1.2c1.1,0,2.1,0.4,2.8,1.1
	c0.8,1,1.2,2.2,1.1,3.5V293c0.1,1.3-0.3,2.5-1.1,3.5c-0.7,0.8-1.7,1.2-2.8,1.2c-1,0-2-0.4-2.7-1.2C353,295.5,352.6,294.3,352.7,293z
	"/>
<path class="st0" d="M401.2,259.2h10c2.3,0,4.5,0.2,6.7,0.7c1.9,0.5,3.6,1.4,5.1,2.7c3.9,3.4,5.9,8.5,5.9,15.4
	c0,2.1-0.2,4.2-0.6,6.2c-0.4,1.8-1,3.5-1.8,5.1c-0.8,1.5-1.9,2.8-3.2,4c-1,0.9-2.1,1.6-3.3,2.2c-1.2,0.6-2.5,1-3.9,1.2
	c-1.6,0.2-3.1,0.4-4.7,0.3h-10c-1.1,0.1-2.2-0.1-3.1-0.6c-0.7-0.4-1.2-1-1.4-1.8c-0.2-1-0.3-2-0.3-3v-27.7c-0.4-2.2,1-4.3,3.1-4.7
	C400.2,259.1,400.7,259.1,401.2,259.2L401.2,259.2z M404.2,265.2v25.7h5.8c1.3,0,2.3,0,3-0.1c0.8-0.1,1.5-0.3,2.3-0.5
	c0.7-0.3,1.4-0.6,2-1.2c2.6-2.2,3.8-5.9,3.9-11.2c0-3.7-0.6-6.5-1.7-8.4c-0.9-1.7-2.4-2.9-4.2-3.5c-2-0.5-4-0.8-6-0.8L404.2,265.2z"
	/>
<path class="st0" d="M488,265.1h-17.2v9.3h15.9c0.9-0.1,1.9,0.2,2.6,0.8c0.6,0.5,0.9,1.3,0.9,2.1c0,0.8-0.3,1.6-0.9,2.1
	c-0.7,0.6-1.7,0.9-2.6,0.8h-15.9v10.8h17.9c1-0.1,2,0.2,2.7,0.8c0.6,0.6,1,1.4,0.9,2.2c0,0.8-0.3,1.6-0.9,2.2
	c-0.8,0.6-1.7,0.9-2.7,0.8h-20.9c-2.2,0.4-4.3-1-4.7-3.1c-0.1-0.5-0.1-1,0-1.6v-28.5c0-0.9,0.1-1.8,0.5-2.7c0.3-0.7,0.9-1.2,1.5-1.5
	c0.8-0.3,1.8-0.5,2.7-0.5H488c1-0.1,2,0.2,2.7,0.8c0.6,0.5,0.9,1.3,0.9,2.1c0,0.8-0.3,1.6-0.9,2.1C490,264.9,489,265.2,488,265.1z"
	/>
<path class="st0" d="M550,292.8l-1.8-4.8h-15.4l-1.8,4.9c-0.4,1.4-1,2.6-1.8,3.8c-0.6,0.7-1.5,1.1-2.5,1c-1,0-1.9-0.4-2.6-1.1
	c-0.7-0.6-1.1-1.5-1.1-2.4c0-0.5,0.1-1.1,0.3-1.6c0.2-0.6,0.5-1.3,0.8-2.3l9.7-24.6l1-2.5c0.3-0.9,0.7-1.7,1.2-2.5
	c0.4-0.7,1-1.2,1.7-1.6c0.8-0.4,1.7-0.6,2.7-0.6c0.9,0,1.8,0.2,2.7,0.6c0.7,0.4,1.3,0.9,1.7,1.6c0.4,0.6,0.8,1.3,1.1,2
	c0.3,0.7,0.7,1.7,1.2,2.9l9.9,24.4c0.6,1.3,1,2.6,1.2,4.1c0,0.9-0.4,1.8-1.1,2.4c-0.7,0.7-1.7,1.1-2.7,1.1c-0.5,0-1.1-0.1-1.5-0.3
	c-0.4-0.2-0.8-0.5-1.1-0.9c-0.4-0.5-0.7-1.1-0.9-1.7C550.6,294,550.3,293.3,550,292.8z M534.9,282.2h11.3l-5.7-15.6L534.9,282.2z"/>
</svg>
